# xmcd CD database file
#
# Track frame offsets:
#	150
#	21700
#	41078
#	64260
#
# Disc length: 1142 seconds
#
# Revision: 7
# Processed by: cddbd v1.5PL3 Copyright (c) Steve Scherf et al.
# Submitted via: CDex 1.51
#
DISCID=38047404
DTITLE=夏川りみ - 童神
DYEAR=2003
DGENRE=JPop
TTITLE0=童神?ヤマトグチ?
TTITLE1=ファムレウタ（子守唄）
TTITLE2=童神
TTITLE3=童神?ヤマトグチ?(Instrumental Version)
EXTD=YEAR: 2003
EXTT0=
EXTT1=
EXTT2=
EXTT3=
PLAYORDER=
